<svg xmlns="http://www.w3.org/2000/svg" width="120" height="38" fill="none"><g fill="#fff" fill-rule="evenodd" clip-path="url(#a)" clip-rule="evenodd"><path d="M12.049 27.592c3.762-1.028 8.528-1.367 12.037-1.367 3.508 0 8.274.339 12.037 1.367 5.435 1.483 12.29 9.94 12.036 10.28-.253.338-6.52-2.746-8.528-4.112-2.008-1.367-4.87-5.082-5.77-5.49-1.5-.69-7.029-.97-7.779-.281-.658.596-1.004 1.273-1.5 4.824-.393 2.78-.496 3.05-.496 3.05s-.104-.27-.497-3.05c-.496-3.55-.75-4.135-1.5-4.824-.75-.69-6.266-.409-7.778.28-.877.398-3.763 4.112-5.77 5.49C6.531 35.127.265 38.223.01 37.873c-.253-.34 6.602-8.797 12.038-10.28ZM42.793 26.54c0-.257 6.774-.759 7.525 0 .75.76 0 11.18-.254 11.425-.254.257-2.008-3.049-3.013-5.84-.577-1.601 3.509-4.825 3.013-5.34-.497-.513-2.505 1.52-3.763 1.52-1.258.01-3.508-1.508-3.508-1.765ZM52.66 26.12c-.253.105-.75 11.53-.507 11.786.254.257 2.4-1.904 2.55-2.908.023-.187-.104-.981-.184-1.566-.15-.97-.323-1.483-.208-1.577.196-.152 3.254 1.823 7.317 3.306 4.293 1.566 10.04 3.154 10.236 2.792.104-.187-1.788-1.04-3.497-2.02-1.684-.959-2.942-1.987-4.431-2.477-1.143-.374-2.978-.596-4.697-.923-2.481-.479-4.778-1.016-4.778-1.168 0-.304 5.193-1.227 8.828-1.472.947-.059 2.343-.97 3.97-1.554 2.39-.852 4.686-1.88 4.605-2.067-.138-.327-4.097.116-8.851 1.238-5.205 1.226-8.737 3.47-8.91 3.33-.15-.118-.265-1.052-.785-2.851-.334-1.11-.577-1.904-.657-1.87ZM92.764 37.58c0 .257-18.5.759-19.25 0-.75-.76 0-11.18.254-11.425.254-.257 2.008 3.049 3.012 5.84.577 1.601-3.508 4.825-3.012 5.34.508.502 6.809-1.52 10.017-1.52 3.197-.011 8.979 1.508 8.979 1.765ZM94.472 26.564c.138-.28.992-.386 1.443-.386 3.508 0 8.274.339 12.036 1.367 5.436 1.483 12.291 9.94 12.037 10.28-.254.338-6.705-3.587-11.056-5.56-2.065-.935-9.636-.561-9.844-1.052-.196-.49 9.983-.876 9.406-1.589-1.604-1.986-13.18-3.55-13.653-2.944-.484.608 3.347 3.75 3.047 5.094-.416 1.869-2.828 6.273-3.047 6.156-.219-.117-.588-3.54-.6-6.261-.011-3.995.092-4.825.23-5.105ZM36.85 2.64C44.084.654 53.247 0 60 0c6.751 0 15.914.654 23.15 2.64 10.456 2.85 23.636 19.111 23.162 19.765-.484.654-12.544-5.268-16.399-7.908-3.854-2.64-9.37-9.766-11.09-10.549-2.897-1.32-13.503-1.857-14.957-.537-1.27 1.156-1.927 2.441-2.897 9.275-.75 5.35-.97 5.864-.97 5.864s-.207-.514-.969-5.864c-.97-6.834-1.442-7.955-2.896-9.275-1.443-1.308-12.049-.771-14.946.549-1.696.771-7.236 7.908-11.09 10.549-3.855 2.64-15.915 8.574-16.4 7.908C13.214 21.75 26.393 5.49 36.85 2.64Z"/></g><defs><clipPath id="a"><path fill="#fff" d="M0 0h120v38H0z"/></clipPath></defs></svg>