<svg width="116" height="127" viewBox="0 0 116 127" fill="none" xmlns="http://www.w3.org/2000/svg">
<path d="M106.508 75.193C109.767 75.6376 111.396 77.4022 111.396 79.1129C111.396 80.2579 110.575 81.0796 109.309 81.0796C108.245 81.0796 107.343 80.2579 107.343 79.1129C107.343 77.8871 108.205 77.3752 108.205 76.7825C108.205 76.3111 107.814 75.4759 106.508 75.193ZM104.637 75.22C101.728 75.6645 100.516 78.3855 100.516 81.6319C100.516 84.3663 100.516 86.562 102.819 87.3164C99.1295 86.5351 96.5712 84.6762 96.5712 81.6049C96.5712 77.3618 100.018 75.4355 104.637 75.22ZM104.637 102.578C99.1161 102.147 95.494 99.7899 95.494 94.7655C95.494 90.7782 98.2139 88.8654 102.63 87.9764C100.207 88.9059 99.4392 91.2901 99.4392 94.7655C99.4392 98.4429 100.853 101.77 104.637 102.578ZM110.359 88.3132C106.535 89.5794 103.102 90.4415 103.102 92.3004C103.102 92.3004 102.873 92.0444 102.832 91.5865C102.469 88.4479 105.875 87.3298 109.619 86.104C113.752 84.757 115.691 84.0161 115.691 82.3188C115.691 82.3188 115.893 82.6287 115.934 82.9924C116.23 85.7673 113.604 87.249 110.534 88.2727M106.98 102.578C109.888 102.134 111.1 99.4127 111.1 96.1664C111.1 93.4319 111.1 91.2362 108.797 90.4819C112.487 91.2632 115.045 93.1221 115.045 96.2068C115.032 100.436 111.585 102.363 106.98 102.578ZM26.2847 89.3638C24.3188 90.0912 20.4814 91.1015 16.3611 91.1015C11.1502 91.1015 7.21847 89.7814 4.2966 86.9796C1.54977 84.3663 -0.0525435 80.2983 0.00131585 75.6376C0.00131585 65.8985 6.94918 59.6348 17.1421 59.6348C20.9392 59.6348 23.9014 60.4161 25.3287 61.103L24.0899 65.6291C22.3934 64.9017 20.3467 64.309 17.1017 64.309C10.5174 64.309 5.89892 68.1885 5.89892 75.3816C5.89892 82.3727 10.1942 86.5351 16.59 86.5351C18.5963 86.5351 20.1043 86.2657 20.8449 85.8885V78.2104H15.4051V73.7786H26.2847V89.3638ZM41.2307 79.8942C37.2586 79.7999 33.4615 80.6755 33.4615 84.0565C33.4615 86.2522 34.8753 87.2625 36.6661 87.2625C38.9013 87.2625 40.544 85.7942 41.0556 84.1912C41.1768 83.7871 41.2441 83.3695 41.2441 82.952V79.8942H41.2307ZM41.9578 90.7782L41.5942 88.3132H41.4596C40.0862 90.0508 37.7568 91.2901 34.8753 91.2901C30.3915 91.2901 27.887 88.0438 27.887 84.6627C27.887 79.0321 32.869 76.2033 41.096 76.2437V75.88C41.096 74.4118 40.5036 71.9871 36.5718 71.9871C34.3771 71.9871 32.0881 72.6741 30.58 73.6305L29.4759 69.9665C31.1186 68.9563 34.0001 67.9999 37.5278 67.9999C44.6642 67.9999 46.7109 72.5259 46.7109 77.3752V85.417C46.7109 87.4241 46.8051 89.3908 47.034 90.7648C47.034 90.7782 41.9578 90.7782 41.9578 90.7782ZM69.8435 84.0969C69.8435 86.7506 69.9377 88.9463 70.032 90.7782H65.0904L64.8211 87.3972H64.7268C63.7708 89.0001 61.5761 91.2901 57.5905 91.2901C53.5241 91.2901 49.8213 88.8654 49.8213 81.5915V68.5117H55.4496V80.6351C55.4496 84.3394 56.6345 86.7237 59.6102 86.7237C61.8454 86.7237 63.313 85.1207 63.9055 83.7063C64.094 83.2079 64.2286 82.6017 64.2286 81.9686V68.5252H69.8569V84.0969H69.8435ZM73.1828 90.7782H78.8515V59.6348H73.1828V90.7782ZM89.5426 62.1537V68.5117H94.8881V72.7145H89.5426V82.5478C89.5426 85.2419 90.2697 86.6563 92.424 86.6563C93.1646 86.6563 93.9052 86.5755 94.6188 86.3869L94.7131 90.6839C93.8917 91.0072 92.424 91.2362 90.6467 91.2362C88.5866 91.2362 86.8496 90.5492 85.7993 89.4043C84.6144 88.1246 84.0624 86.1175 84.0624 83.181V72.7145H80.8577V68.5117H84.0624V63.4873L89.5426 62.1537ZM28.2371 113.907C28.0486 109.933 27.8332 105.124 27.8736 100.962H27.7389C26.6617 104.936 25.4499 108.869 24.0765 112.762L19.5927 126.111H15.257L11.1502 112.937C9.95184 108.99 8.91505 104.989 8.03983 100.962H7.94558C7.81093 105.34 7.62242 109.718 7.39352 114.082L6.70681 126.475H1.44205L3.50218 95.6545H10.9078L14.9338 108.047C16.011 111.576 16.9536 115.146 17.7615 118.743H17.8961C18.7982 115.146 19.8216 111.55 20.9795 108.007L25.2344 95.6545H32.5459L34.3232 126.475H28.843L28.2371 113.907ZM39.3052 126.488H44.9739V104.222H39.3052V126.488ZM45.2836 97.9983C45.2836 99.6821 44.0448 101.016 42.079 101.016C40.2074 101.016 38.9686 99.6956 38.9686 97.9983C38.9686 96.2607 40.2478 94.9271 42.1194 94.9271C44.0583 94.9271 45.2432 96.2607 45.2836 97.9983ZM50.0906 126.488H55.7593V95.668H50.0906V126.488ZM60.9163 126.488H66.585V95.668H60.9163V126.488ZM83.5507 115.604C79.5786 115.51 75.7815 116.385 75.7815 119.766C75.7815 121.962 77.1953 122.972 78.9861 122.972C81.2213 122.972 82.864 121.504 83.3757 119.901C83.4968 119.497 83.5642 119.079 83.5642 118.662C83.5507 118.662 83.5507 115.604 83.5507 115.604ZM84.2778 126.488L83.9143 124.023H83.7796C82.4062 125.761 80.0768 127 77.1953 127C72.7115 127 70.207 123.754 70.207 120.373C70.207 114.742 75.189 111.913 83.4161 111.954V111.59C83.4161 110.122 82.8236 107.697 78.8919 107.697C76.6971 107.697 74.4081 108.384 72.9 109.34L71.7959 105.676C73.4386 104.666 76.3201 103.71 79.8479 103.71C86.9842 103.71 89.0309 108.236 89.0309 113.085V121.127C89.0309 123.134 89.1252 125.101 89.3541 126.475C89.3541 126.488 84.2778 126.488 84.2778 126.488ZM113.995 119.807C113.995 122.46 114.089 124.656 114.183 126.488H109.255L108.986 123.107H108.892C107.936 124.71 105.741 127 101.755 127C97.6888 127 93.986 124.575 93.986 117.301V104.222H99.6143V116.345C99.6143 120.049 100.799 122.434 103.775 122.434C106.01 122.434 107.478 120.831 108.07 119.416C108.259 118.918 108.393 118.312 108.393 117.679V104.235H114.022L113.995 119.807Z" fill="black"/>
<path d="M8.06094 31.9599C8.10943 28.8074 7.96394 25.7035 6.94545 22.6965C6.26647 20.7081 5.34498 18.8651 4.61749 16.9251C3.50201 14.2092 3.01702 11.3962 3.50201 8.43778C4.1325 4.99433 6.84846 2.27838 10.2919 1.64789C11.4559 1.45389 12.6199 1.40539 13.7838 1.59939C14.8508 1.79338 15.7238 1.55089 16.6938 1.16289C19.6522 -0.00108705 22.6592 -0.534579 25.7146 0.7264C29.2066 2.22988 30.6616 5.09133 31.1466 8.63177C31.68 12.7057 31.0496 16.7311 30.2736 20.7566C29.4006 25.4125 28.7216 30.0684 28.7701 34.8213C28.8186 37.2463 28.7701 37.2463 26.3936 38.0223C20.6222 39.8653 15.0933 38.9923 9.70991 36.4703C8.44893 35.8883 7.76994 35.1123 8.06094 33.6574C8.10943 33.1239 8.10943 32.5419 8.06094 31.9599ZM10.8739 30.9899C10.8739 31.7659 10.9224 32.5904 10.8739 33.3664C10.7769 33.9483 11.1164 34.4818 11.6984 34.6273C13.3958 35.3063 15.1903 35.7428 16.9848 35.9368C19.8947 36.3248 22.7562 35.9853 25.6176 35.4033C26.4906 35.2093 26.2481 34.6273 26.1996 34.0938C26.1511 33.4634 25.7146 33.6574 25.3752 33.7059C23.2412 34.0453 21.0587 34.1423 18.8763 33.9968C18.0033 33.9484 17.1303 33.8028 16.2573 33.5604C15.8693 33.4149 15.5783 33.2694 15.6268 32.7844C15.7238 32.2994 15.9663 31.7659 16.4028 31.8629C17.9063 32.2509 18.0518 31.2809 18.2458 30.2624C18.2943 30.0684 18.3428 29.9229 18.4398 29.7289C19.2158 27.886 20.0887 26.14 20.2827 24.103C20.3312 23.715 20.2827 23.1815 20.8647 23.1815C21.4467 23.1815 21.4467 23.715 21.4952 24.1515C21.7377 25.655 21.3012 27.11 21.1072 28.5649C20.9617 29.3894 20.8647 30.2624 20.7192 31.0869C20.6707 31.4264 20.7677 31.7174 21.2042 31.7174C21.4467 31.7659 21.6892 31.6204 21.7377 31.4264C21.7377 31.3294 21.7377 31.2809 21.7377 31.1839C21.5922 29.3894 22.2227 27.789 22.7562 26.14C23.5322 23.7635 24.2597 21.3871 24.4052 18.8651C24.4537 18.4771 24.4537 17.8951 25.0842 17.8951C25.7146 17.8951 25.5691 18.4286 25.6661 18.8166C26.0056 20.3201 25.7146 21.7751 25.5206 23.23C25.2297 25.558 24.5992 27.7889 24.5022 30.1654C24.5022 30.5534 24.3082 31.1839 24.9872 31.1839C25.5691 31.1839 26.1996 31.0869 26.1996 30.2139C26.1511 25.849 27.4121 21.6781 28.3336 17.5071C29.0611 14.1607 29.4006 10.7172 28.7701 7.27379C27.8001 2.22988 23.8232 1.35689 19.7492 2.66637C19.5552 2.71487 19.2643 2.76337 19.3128 3.05436C19.4097 3.19986 19.5552 3.34536 19.7007 3.44236C20.6222 3.97585 21.5437 4.50934 22.4652 5.04283C22.7562 5.23683 23.0472 5.43082 22.9987 5.86732C22.9502 6.30381 22.5622 6.4493 22.1742 6.5463C21.2042 6.7888 20.1372 6.5948 19.2643 6.06131C17.4213 4.94583 15.3358 4.16985 13.2019 3.83035C8.73993 3.10287 5.53898 5.81882 5.58748 10.3292C5.63598 12.6572 6.46046 14.7912 7.47894 16.7796C9.80691 21.2416 11.0679 25.8975 10.8739 30.9899Z" fill="black"/>
<path d="M49.1399 31.9599C49.1884 28.8074 49.0429 25.7035 48.0245 22.6965C47.3455 20.7566 46.424 18.8651 45.648 16.9251C44.581 14.2092 44.096 11.3962 44.581 8.43778C45.2115 4.99433 47.879 2.27838 51.3709 1.64789C52.5349 1.45389 53.6989 1.40539 54.8628 1.59939C55.9298 1.79338 56.8028 1.55089 57.7728 1.16289C60.7312 -0.00108705 63.7382 -0.534579 66.7936 0.7264C70.2856 2.22988 71.7406 5.09133 72.2256 8.63177C72.7591 12.7057 72.1286 16.7311 71.3526 20.7566C70.4796 25.4125 69.8006 30.0684 69.8491 34.8213C69.8976 37.2463 69.8491 37.2463 67.4726 38.0223C61.7012 39.8653 56.1723 38.9923 50.7889 36.4703C49.5279 35.8883 48.8489 35.1123 49.1399 33.6574C49.1884 33.1239 49.1884 32.5419 49.1399 31.9599ZM51.9529 30.9899C51.9529 31.7659 52.0014 32.5904 51.9529 33.3664C51.8559 33.9483 52.1954 34.4818 52.7774 34.6273C54.4749 35.3063 56.2693 35.7428 58.0638 35.9368C60.9737 36.3248 63.8352 35.9853 66.6966 35.4033C67.5696 35.2093 67.3271 34.6273 67.2786 34.0938C67.2301 33.4634 66.7936 33.6574 66.4542 33.7059C64.3202 34.0453 62.1377 34.1423 59.9553 33.9968C59.0823 33.9484 58.2093 33.8028 57.3363 33.5604C56.9483 33.4149 56.6573 33.2694 56.7058 32.7844C56.8028 32.2994 57.0453 31.7659 57.4818 31.8629C58.9853 32.2509 59.1308 31.2809 59.3248 30.2624C59.3733 30.0684 59.4218 29.9229 59.5188 29.7289C60.2948 27.886 61.1677 26.14 61.3617 24.103C61.4102 23.715 61.3617 23.1815 61.9437 23.1815C62.5257 23.1815 62.5257 23.715 62.5742 24.1515C62.8167 25.655 62.3802 27.11 62.1862 28.5649C62.0407 29.3894 61.9437 30.2624 61.7982 31.0869C61.7497 31.4264 61.8467 31.7174 62.2832 31.7174C62.5257 31.7659 62.7682 31.6204 62.8167 31.4264C62.8167 31.3294 62.8167 31.2809 62.8167 31.1839C62.6712 29.3894 63.3017 27.789 63.8352 26.14C64.6112 23.7635 65.3387 21.3871 65.4842 18.8651C65.5327 18.4771 65.5327 17.8951 66.1632 17.8951C66.7937 17.8951 66.6482 18.4286 66.7451 18.8166C67.0846 20.3201 66.7936 21.7751 66.5997 23.23C66.3087 25.558 65.6782 27.7889 65.5812 30.1654C65.5812 30.5534 65.3872 31.1839 66.0662 31.1839C66.6481 31.1839 67.2786 31.0869 67.2786 30.2139C67.2301 25.849 68.4911 21.6781 69.4126 17.5071C70.1401 14.1607 70.4796 10.7172 69.8491 7.27379C68.8791 2.22988 64.9507 1.35689 60.8767 2.66637C60.6827 2.71487 60.3918 2.76337 60.4403 3.05436C60.5373 3.19986 60.6828 3.34536 60.8282 3.44236C61.7497 3.97585 62.6712 4.50934 63.5927 5.04283C63.8837 5.23683 64.1747 5.43082 64.1262 5.86732C64.0777 6.30381 63.6412 6.4493 63.3017 6.5463C62.3317 6.7888 61.2647 6.5948 60.3918 6.06131C58.5003 4.94583 56.4633 4.16984 54.2809 3.87885C49.8189 3.15136 46.618 5.86732 46.6665 10.3777C46.715 12.7057 47.5395 14.8397 48.558 16.8281C50.8859 21.2416 52.1469 25.946 51.9529 30.9899Z" fill="black"/>
<path d="M90.2669 31.9599C90.3154 28.8074 90.1699 25.7035 89.1514 22.6965C88.4724 20.7566 87.5509 18.8651 86.775 16.9251C85.708 14.2092 85.223 11.3962 85.708 8.43778C86.3385 4.99433 89.0059 2.27838 92.4494 1.64789C93.6133 1.45389 94.7773 1.40539 95.9413 1.59939C97.0083 1.79338 97.8813 1.55089 98.8513 1.16289C101.81 -0.00108705 104.817 -0.534579 107.872 0.7264C111.364 2.22988 112.819 5.09133 113.304 8.63177C113.837 12.7057 113.207 16.7311 112.431 20.7566C111.558 25.4125 110.879 30.0684 110.928 34.8213C110.976 37.2463 110.928 37.2463 108.551 38.0223C102.78 39.8653 97.2508 38.9923 91.8674 36.4703C90.6064 35.8883 89.9274 35.1123 90.2184 33.6574C90.3154 33.1239 90.3154 32.5419 90.2669 31.9599ZM93.0799 30.9899C93.0799 31.7659 93.1284 32.5904 93.0799 33.3664C92.9829 33.9483 93.3223 34.4818 93.9043 34.6273C95.6018 35.3063 97.3963 35.7428 99.1907 35.9368C102.101 36.3248 104.962 35.9853 107.824 35.4033C108.697 35.2093 108.454 34.6273 108.406 34.0938C108.357 33.4634 107.921 33.6574 107.581 33.7059C105.447 34.0453 103.265 34.1423 101.082 33.9968C100.209 33.9484 99.3362 33.8028 98.4633 33.5604C98.0753 33.4149 97.7843 33.2694 97.8328 32.7844C97.9298 32.2994 98.1723 31.7659 98.6088 31.8629C100.112 32.2509 100.258 31.2809 100.452 30.2624C100.5 30.0684 100.549 29.9229 100.646 29.7289C101.422 27.886 102.295 26.14 102.489 24.103C102.537 23.715 102.489 23.1815 103.071 23.1815C103.653 23.1815 103.653 23.715 103.701 24.1515C103.944 25.655 103.507 27.11 103.313 28.5649C103.168 29.3894 103.071 30.2624 102.925 31.0869C102.877 31.4264 102.974 31.7174 103.41 31.7174C103.653 31.8144 103.895 31.6689 103.992 31.4264C104.041 31.3294 104.041 31.2324 103.992 31.1354C103.847 29.3409 104.477 27.7405 105.011 26.0915C105.787 23.715 106.514 21.3386 106.66 18.8166C106.708 18.4286 106.708 17.8466 107.339 17.8466C107.969 17.8466 107.824 18.3801 107.921 18.7681C108.26 20.2716 107.969 21.7266 107.775 23.1815C107.484 25.5095 106.854 27.789 106.757 30.1169C106.757 30.5049 106.563 31.1354 107.242 31.1354C107.824 31.1354 108.454 31.0384 108.454 30.1654C108.406 25.8005 109.667 21.6296 110.588 17.4586C111.316 14.1122 111.655 10.6687 111.025 7.2253C110.055 2.18138 106.078 1.30839 102.004 2.61787C101.81 2.66637 101.519 2.71487 101.567 3.00586C101.664 3.15136 101.81 3.29686 101.955 3.39386C102.877 3.92735 103.798 4.46084 104.72 4.99433C105.011 5.18833 105.302 5.38232 105.253 5.81882C105.205 6.25531 104.817 6.40081 104.429 6.49781C103.459 6.7403 102.392 6.54631 101.519 6.01282C99.6757 4.89734 97.5903 4.12135 95.4563 3.78185C90.9944 3.05436 87.7934 5.77031 87.8419 10.2807C87.8904 12.6087 88.7149 14.7427 89.7334 16.7311C92.0129 21.2416 93.2254 25.8975 93.0799 30.9899Z" fill="black"/>
</svg>
