<svg xmlns="http://www.w3.org/2000/svg" width="26" height="26" fill="none"><path fill="#fff" d="M12.997 6.442a6.548 6.548 0 0 0-6.558 6.559 6.548 6.548 0 0 0 6.558 6.558A6.548 6.548 0 0 0 19.555 13a6.548 6.548 0 0 0-6.558-6.558Zm0 10.822a4.272 4.272 0 0 1-4.264-4.263 4.268 4.268 0 0 1 4.264-4.264A4.268 4.268 0 0 1 17.261 13a4.272 4.272 0 0 1-4.264 4.263Zm8.357-11.09c0 .85-.685 1.53-1.53 1.53a1.53 1.53 0 1 1 1.53-1.53Zm4.343 1.552c-.097-2.049-.565-3.864-2.066-5.36C22.136.872 20.321.404 18.271.3 16.16.18 9.83.18 7.717.3 5.674.397 3.86.865 2.357 2.36.858 3.857.395 5.673.292 7.72c-.12 2.113-.12 8.443 0 10.555.097 2.049.565 3.864 2.067 5.36 1.5 1.495 3.31 1.963 5.36 2.066 2.111.12 8.441.12 10.553 0 2.05-.098 3.864-.566 5.36-2.067 1.495-1.495 1.963-3.31 2.066-5.36.12-2.111.12-8.436 0-10.548ZM22.97 20.541a4.317 4.317 0 0 1-2.432 2.431c-1.683.668-5.68.514-7.54.514-1.86 0-5.862.148-7.54-.514a4.317 4.317 0 0 1-2.432-2.431c-.667-1.684-.513-5.68-.513-7.54 0-1.861-.149-5.863.513-7.54a4.317 4.317 0 0 1 2.432-2.432c1.684-.668 5.68-.514 7.54-.514 1.86 0 5.862-.148 7.54.514A4.317 4.317 0 0 1 22.97 5.46c.668 1.684.514 5.68.514 7.54 0 1.861.154 5.863-.514 7.54Z"/></svg>