<svg xmlns="http://www.w3.org/2000/svg" width="120" height="38" fill="none"><g fill="#1A1A1A" fill-rule="evenodd" clip-path="url(#a)" clip-rule="evenodd"><path d="M12.048 27.592c3.763-1.028 8.529-1.367 12.037-1.367 3.509 0 8.275.339 12.037 1.367 5.436 1.483 12.291 9.94 12.037 10.28-.254.338-6.52-2.746-8.528-4.112-2.008-1.367-4.87-5.082-5.77-5.49-1.501-.69-7.029-.97-7.78-.281-.657.596-1.003 1.273-1.5 4.824-.392 2.78-.496 3.05-.496 3.05s-.104-.27-.496-3.05c-.496-3.55-.75-4.135-1.5-4.824-.75-.69-6.267-.409-7.779.28-.877.398-3.762 4.112-5.77 5.49C6.532 35.127.265 38.223.011 37.873c-.253-.34 6.602-8.797 12.037-10.28ZM42.793 26.54c0-.257 6.774-.759 7.524 0 .75.76 0 11.18-.254 11.425-.254.257-2.008-3.049-3.012-5.84-.577-1.601 3.509-4.825 3.012-5.34-.496-.513-2.504 1.52-3.762 1.52-1.258.01-3.508-1.508-3.508-1.765ZM52.66 26.12c-.254.105-.75 11.53-.508 11.786.254.257 2.4-1.904 2.55-2.908.024-.187-.103-.981-.184-1.566-.15-.97-.323-1.483-.208-1.577.197-.152 3.255 1.823 7.317 3.306 4.293 1.566 10.04 3.154 10.237 2.792.104-.187-1.789-1.04-3.497-2.02-1.685-.959-2.943-1.987-4.432-2.477-1.142-.374-2.977-.596-4.697-.923-2.481-.479-4.778-1.016-4.778-1.168 0-.304 5.194-1.227 8.83-1.472.945-.059 2.342-.97 3.969-1.554 2.389-.852 4.686-1.88 4.605-2.067-.139-.327-4.097.116-8.852 1.238-5.205 1.226-8.736 3.47-8.91 3.33-.15-.118-.265-1.052-.784-2.851-.335-1.11-.577-1.904-.658-1.87ZM92.764 37.58c0 .256-18.5.759-19.25 0-.75-.76 0-11.18.254-11.425.254-.257 2.008 3.049 3.012 5.84.577 1.6-3.508 4.825-3.012 5.339.508.502 6.809-1.519 10.017-1.519 3.197-.011 8.979 1.507 8.979 1.764ZM94.472 26.564c.138-.28.992-.386 1.443-.386 3.508 0 8.274.339 12.036 1.367 5.436 1.483 12.291 9.94 12.037 10.28-.254.338-6.705-3.587-11.056-5.56-2.065-.935-9.636-.561-9.844-1.052-.196-.49 9.983-.876 9.406-1.589-1.604-1.986-13.18-3.55-13.653-2.944-.484.608 3.347 3.75 3.047 5.094-.416 1.869-2.828 6.273-3.047 6.156-.219-.117-.588-3.54-.6-6.261-.011-3.995.092-4.825.23-5.105ZM36.85 2.64C44.084.654 53.248 0 60 0c6.751 0 15.915.654 23.15 2.64 10.456 2.85 23.636 19.111 23.163 19.765-.485.654-12.545-5.268-16.4-7.908-3.854-2.64-9.37-9.766-11.09-10.549-2.897-1.32-13.503-1.857-14.957-.537-1.27 1.156-1.927 2.441-2.897 9.275-.75 5.35-.969 5.864-.969 5.864s-.208-.514-.97-5.864c-.969-6.834-1.442-7.955-2.896-9.275-1.443-1.308-12.049-.771-14.945.549-1.697.771-7.236 7.908-11.09 10.549-3.855 2.64-15.915 8.574-16.4 7.908-.485-.666 12.694-16.927 23.15-19.777Z"/></g><defs><clipPath id="a"><path fill="#fff" d="M0 0h120v38H0z"/></clipPath></defs></svg>