<svg width="116" height="117" viewBox="0 0 116 117" fill="none" xmlns="http://www.w3.org/2000/svg">
<path d="M16.8704 108.177C16.7213 105.465 16.5425 102.216 16.5723 99.8018H16.4829C15.8271 102.067 15.0224 104.481 14.0388 107.164L10.611 116.583H8.70343L5.57378 107.343C4.64978 104.601 3.87482 102.097 3.33831 99.8018H3.27869C3.21908 102.216 3.07005 105.465 2.89121 108.386L2.3845 116.702H0L1.34128 97.298H4.53056L7.83905 106.687C8.64382 109.072 9.29956 111.218 9.80627 113.215H9.89569C10.3726 111.247 11.0879 109.131 11.9523 106.687L15.4098 97.298H18.5991L19.8212 116.702H17.3771L16.8704 108.177Z" fill="black"/>
<path d="M26.1697 97.298V116.702H23.666V97.298H26.1697Z" fill="black"/>
<path d="M44.1149 116.076C43.1909 116.523 41.3429 117 38.9882 117C33.5039 117 29.3906 113.542 29.3906 107.194C29.3906 101.113 33.5039 97 39.5248 97C41.9391 97 43.4592 97.5067 44.1447 97.8644L43.5486 99.921C42.5948 99.4739 41.2535 99.1162 39.644 99.1162C35.0836 99.1162 32.0732 102.037 32.0732 107.134C32.0732 111.873 34.8154 114.943 39.5248 114.943C41.0449 114.943 42.5948 114.616 43.6082 114.139L44.1149 116.076Z" fill="black"/>
<path d="M49.7479 97.298V105.435H59.1369V97.3278H61.6704V116.732H59.1369V107.641H49.7479V116.732H47.2441V97.3278H49.7479V97.298Z" fill="black"/>
<path d="M76.0955 107.611H68.5545V114.616H76.9599V116.732H66.0508V97.3279H76.5128V99.4441H68.5247V105.584H76.0657V107.611H76.0955Z" fill="black"/>
<path d="M80.2109 97.298H82.7147V114.615H91.0008V116.732H80.2109V97.298Z" fill="black"/>
<path d="M96.3065 97.298V116.702H93.8027V97.298H96.3065Z" fill="black"/>
<path d="M100.684 116.702V97.298H103.426L109.655 107.104C111.086 109.37 112.219 111.426 113.143 113.423L113.202 113.393C112.964 110.8 112.904 108.446 112.904 105.405V97.298H115.259V116.702H112.725L106.555 106.866C105.214 104.72 103.903 102.484 102.919 100.398L102.83 100.428C102.979 102.872 103.038 105.197 103.038 108.446V116.732L100.684 116.702Z" fill="black"/>
<path fill-rule="evenodd" clip-rule="evenodd" d="M44.1882 65.3871C42.8649 66.1099 41.662 66.8328 40.4591 67.4954C32.8807 71.4709 25.3624 68.7603 21.6935 61.532C18.2652 54.7856 20.1297 47.6778 26.7458 43.6421C27.8886 42.9192 29.0915 42.3169 30.4147 41.5338C29.4524 40.9917 28.6103 40.5098 27.7683 39.9677C24.0994 37.7992 21.2123 34.9681 20.3102 30.6914C19.4681 26.7761 20.3703 23.1017 22.6558 19.7888C27.2871 12.9821 34.7452 12.0184 41.3613 15.8734C42.2635 16.4156 43.2258 16.9577 44.2483 17.56C44.2483 16.1746 44.2483 14.9097 44.2483 13.705C44.3686 9.48847 45.8121 5.87434 49.06 3.1035C51.0448 1.41691 53.3304 0.272432 56.0369 0.0917249C59.0442 -0.0889818 62.0515 -0.149223 64.8183 1.35667C68.3669 3.22397 70.5321 6.17552 71.3742 9.97036C71.7952 11.9581 71.7952 14.0061 71.9756 16.0541C72.0358 16.536 71.9756 17.0179 71.9756 17.7408C73.2387 17.0179 74.2612 16.3553 75.3438 15.753C78.7722 13.8857 82.3809 12.9821 86.2303 14.0664C88.7564 14.7892 90.7412 16.2951 92.3652 18.2829C95.0116 21.4151 96.395 24.969 96.0942 29.065C95.6732 34.3055 92.6058 37.739 88.2151 40.1484C87.4332 40.57 86.7114 40.9315 85.8092 41.4133C87.4933 42.4976 89.1173 43.4011 90.5608 44.4854C94.771 47.6778 96.9363 51.8341 95.9138 57.1951C95.0718 62.0139 92.5456 65.869 88.0948 67.9772C83.5839 70.1457 79.0127 69.4831 74.7424 67.0135C73.8402 66.5316 73.0583 65.869 71.9155 65.0859C71.9155 66.7123 71.9155 68.0375 71.9155 69.3626C71.8554 72.3744 71.0735 75.2055 69.2089 77.6752C67.1038 80.446 64.3972 82.1928 60.9689 82.735C56.0971 83.4578 51.4658 82.8554 47.9172 79.0003C45.2708 76.109 44.3085 72.6154 44.1882 68.8205C44.128 67.7965 44.1882 66.6521 44.1882 65.3871ZM46.5339 40.3291C46.9549 42.6783 46.8947 42.7385 44.7295 43.0397C44.2483 43.0999 43.7671 43.1602 43.286 43.2204C38.5344 43.7625 33.843 44.7865 29.5726 47.1357C25.8436 49.1837 23.9189 52.9183 24.8813 56.9541C26.0842 61.9537 30.4147 66.3509 36.8503 64.1222C39.7975 63.0982 42.2635 61.2911 44.3084 59.0624C46.5338 56.653 48.5788 54.0026 50.6238 51.4124C51.1651 50.7499 51.526 50.7499 52.1274 51.1715C52.6687 51.5932 53.6311 51.6534 53.0898 52.7979C52.5485 53.9423 52.0071 55.2073 51.526 56.412C49.8419 60.5683 48.639 64.845 48.8194 69.3626C48.9397 72.9165 50.1426 76.0488 53.5709 77.6149C56.7587 79.0606 60.1269 78.9401 63.2545 77.2535C64.2769 76.6512 65.1791 75.6272 65.8408 74.6032C67.585 71.6516 67.4045 68.3387 66.9234 65.0859C66.2618 60.8694 64.7581 56.9541 62.9537 53.099C62.5929 52.316 62.653 51.9546 63.4349 51.4727C64.3972 50.8703 65.0588 50.8101 65.6002 51.8943C65.9009 52.4967 66.3219 52.9786 66.7429 53.4605C69.8705 57.4962 73.1184 61.4116 77.9301 63.6403C81.2381 65.1462 84.4259 65.3871 87.373 62.9777C90.5006 60.4478 91.9442 57.0746 91.042 52.9786C90.1999 49.3042 87.3129 47.4369 84.1853 46.0515C79.8548 44.1239 75.2837 43.4614 70.6524 43.0397C69.7503 42.9192 69.2691 42.6783 69.2691 41.6543C69.2691 40.6303 69.63 40.2086 70.5923 40.2086C70.9532 40.2086 71.3742 40.1484 71.7351 40.0882C76.246 39.4858 80.6968 38.763 84.8469 36.8354C87.3129 35.691 89.5383 34.1851 90.6209 31.5949C92.0644 28.3422 91.463 25.1497 89.4782 22.3187C87.3129 19.3069 84.4259 17.7408 80.5765 18.5841C77.8098 19.1864 75.4641 20.6923 73.2989 22.4994C70.2314 25.1497 67.7053 28.2217 65.54 31.5949C64.9987 32.378 64.5175 32.378 63.7958 31.9564C63.1943 31.5347 62.3523 31.2335 62.8936 30.1493C63.6755 28.5832 64.3972 27.017 64.9987 25.3907C66.6226 21.0537 67.8857 16.6565 66.9835 12.0184C66.6828 10.3318 65.961 8.5247 64.8183 7.25976C62.1718 4.42868 58.6834 4.24798 55.1347 5.09128C52.1274 5.81411 50.2629 7.80188 49.4209 10.7534C48.2781 14.5483 48.9397 18.2829 50.0223 21.9572C50.8644 24.7883 52.0673 27.4989 53.1499 30.2698C53.3905 30.9323 53.3304 31.2938 52.789 31.7154C51.526 32.5587 51.3455 32.5587 50.3832 31.354C50.1426 30.9926 49.902 30.6312 49.6614 30.2698C46.7744 26.3544 43.707 22.6198 39.4366 20.1502C34.7452 17.4998 30.6553 17.56 27.0465 21.7765C23.4979 25.9328 23.9189 31.4142 28.069 34.8477C31.4372 37.6185 35.5271 38.522 39.6171 39.3051C41.9628 39.7267 44.2483 39.9677 46.5339 40.3291Z" fill="black"/>
</svg>
