<svg width="92" height="100" viewBox="0 0 92 100" fill="none" xmlns="http://www.w3.org/2000/svg">
<g clip-path="url(#clip0_279_4)">
<path d="M83.8646 59.2076C86.4307 59.5577 87.7134 60.9471 87.7134 62.2941C87.7134 63.1957 87.0669 63.8427 86.0701 63.8427C85.2323 63.8427 84.522 63.1957 84.522 62.2941C84.522 61.3289 85.2008 60.9259 85.2008 60.4592C85.2008 60.088 84.8929 59.4303 83.8646 59.2076ZM82.3913 59.2288C80.1008 59.5788 79.1465 61.7214 79.1465 64.2776C79.1465 66.4307 79.1465 68.1596 80.9598 68.7536C78.0547 68.1384 76.0403 66.6747 76.0403 64.2563C76.0403 60.9153 78.7543 59.3985 82.3913 59.2288ZM82.3913 80.7706C78.0442 80.4312 75.1921 78.5752 75.1921 74.619C75.1921 71.4794 77.3338 69.9733 80.811 69.2733C78.9031 70.0051 78.2986 71.8825 78.2986 74.619C78.2986 77.5146 79.4118 80.1344 82.3913 80.7706ZM86.8968 69.5385C83.8858 70.5355 81.1827 71.2143 81.1827 72.678C81.1827 72.678 81.0024 72.4764 80.9701 72.1159C80.6843 69.6445 83.3661 68.7641 86.3142 67.7989C89.5685 66.7383 91.0953 66.1549 91.0953 64.8185C91.0953 64.8185 91.2543 65.0625 91.2866 65.3488C91.5197 67.5338 89.452 68.7005 87.0346 69.5066M84.2362 80.7706C86.526 80.421 87.4803 78.2782 87.4803 75.7221C87.4803 73.5689 87.4803 71.84 85.6669 71.2461C88.5724 71.8613 90.5866 73.325 90.5866 75.7539C90.5764 79.084 87.8622 80.6013 84.2362 80.7706ZM20.6966 70.3657C19.1487 70.9384 16.1271 71.734 12.8828 71.734C8.77968 71.734 5.68383 70.6945 3.38315 68.4884C1.22029 66.4307 -0.0413728 63.2275 0.0010361 59.5577C0.0010361 51.8891 5.47179 46.957 13.4977 46.957C16.4876 46.957 18.82 47.5722 19.9439 48.1131L18.9684 51.677C17.6326 51.1042 16.021 50.6375 13.4659 50.6375C8.28142 50.6375 4.64482 53.6922 4.64482 59.3561C4.64482 64.8609 8.02693 68.1384 13.063 68.1384C14.6428 68.1384 15.8302 67.9262 16.4133 67.6292V61.5835H12.13V58.0939H20.6966V70.3657ZM32.4651 62.9093C29.3375 62.8351 26.3476 63.5245 26.3476 66.1867C26.3476 67.9156 27.4609 68.7111 28.8709 68.7111C30.6309 68.7111 31.9244 67.555 32.3272 66.2928C32.4227 65.9746 32.4757 65.6458 32.4757 65.317V62.9093H32.4651ZM33.0376 71.4794L32.7513 69.5385H32.6454C31.5639 70.9066 29.7298 71.8825 27.4609 71.8825C23.9303 71.8825 21.9583 69.3263 21.9583 66.664C21.9583 62.2305 25.8811 60.0031 32.3591 60.0349V59.7485C32.3591 58.5925 31.8926 56.6833 28.7967 56.6833C27.0686 56.6833 25.2662 57.2242 24.0787 57.9773L23.2094 55.0922C24.5028 54.2968 26.7717 53.5437 29.5494 53.5437C35.1687 53.5437 36.7802 57.1075 36.7802 60.9258V67.258C36.7802 68.8384 36.8544 70.387 37.0346 71.4688C37.0346 71.4794 33.0376 71.4794 33.0376 71.4794ZM54.9949 66.2185C54.9949 68.3081 55.0691 70.037 55.1433 71.4794H51.2523L51.0402 68.8172H50.966C50.2132 70.0793 48.4851 71.8825 45.3468 71.8825C42.145 71.8825 39.2294 69.9733 39.2294 64.2458V53.9467H43.6611V63.4927C43.6611 66.4095 44.5941 68.2869 46.9372 68.2869C48.6972 68.2869 49.8528 67.0247 50.3193 65.911C50.4677 65.5185 50.5737 65.0412 50.5737 64.5427V53.9573H55.0054V66.2185H54.9949ZM57.6243 71.4794H62.0878V46.957H57.6243V71.4794ZM70.506 48.9404V53.9467H74.715V57.256H70.506V64.9988C70.506 67.1201 71.0785 68.2338 72.7748 68.2338C73.358 68.2338 73.9411 68.1702 74.503 68.0217L74.5772 71.4051C73.9305 71.6597 72.7748 71.84 71.3754 71.84C69.7532 71.84 68.3855 71.2991 67.5585 70.3976C66.6255 69.3899 66.1909 67.8096 66.1909 65.4973V57.256H63.6675V53.9467H66.1909V49.9905L70.506 48.9404ZM22.2339 89.691C22.0855 86.5619 21.9159 82.7753 21.9477 79.4981H21.8417C20.9935 82.6273 20.0393 85.7241 18.9579 88.7895L15.4273 99.3005H12.0134L8.77968 88.9273C7.83609 85.8194 7.01972 82.669 6.33057 79.4981H6.25636C6.15034 82.9454 6.00191 86.3926 5.82167 89.8288L5.28095 99.5871H1.13547L2.75762 75.319H8.58882L11.7589 85.0769C12.6071 87.8556 13.3493 90.6666 13.9854 93.4989H14.0914C14.8017 90.6666 15.6076 87.8351 16.5193 85.0454L19.8696 75.319H25.6267L27.0261 99.5871H22.711L22.2339 89.691ZM30.949 99.5973H35.4125V82.0651H30.949V99.5973ZM35.6564 77.1645C35.6564 78.4903 34.6809 79.5407 33.1331 79.5407C31.6594 79.5407 30.6839 78.501 30.6839 77.1645C30.6839 75.7963 31.6912 74.7462 33.1649 74.7462C34.6916 74.7462 35.6246 75.7963 35.6564 77.1645ZM39.4414 99.5973H43.905V75.3296H39.4414V99.5973ZM47.9656 99.5973H52.4291V75.3296H47.9656V99.5973ZM65.7879 91.0273C62.6603 90.9533 59.6705 91.6422 59.6705 94.3044C59.6705 96.0336 60.7837 96.8288 62.1938 96.8288C63.9538 96.8288 65.2472 95.6729 65.6502 94.4107C65.7455 94.0926 65.7986 93.7635 65.7986 93.4351C65.788 93.4351 65.7879 91.0273 65.7879 91.0273ZM66.3605 99.5973L66.0742 97.6564H65.9682C64.8868 99.0249 63.0526 100.001 60.7837 100.001C57.2531 100.001 55.2811 97.4446 55.2811 94.7824C55.2811 90.3485 59.2039 88.121 65.682 88.1533V87.8666C65.682 86.7107 65.2154 84.8013 62.1196 84.8013C60.3914 84.8013 58.5891 85.3422 57.4016 86.095L56.5322 83.2099C57.8257 82.4147 60.0946 81.6619 62.8724 81.6619C68.4915 81.6619 70.1031 85.2257 70.1031 89.0438V95.3761C70.1031 96.9564 70.1773 98.5052 70.3576 99.5871C70.3576 99.5973 66.3605 99.5973 66.3605 99.5973ZM89.7598 94.3367C89.7598 96.4257 89.8339 98.1548 89.9079 99.5973H86.0276L85.8157 96.9351H85.7417C84.989 98.1974 83.2606 100.001 80.122 100.001C76.9203 100.001 74.0047 98.0911 74.0047 92.3635V82.0651H78.4365V91.6107C78.4365 94.5273 79.3693 96.4052 81.7126 96.4052C83.4724 96.4052 84.6283 95.143 85.0945 94.0288C85.2433 93.6367 85.3488 93.1596 85.3488 92.6611V82.0753H89.7811L89.7598 94.3367Z" fill="black"/>
<path d="M6.34677 25.1653C6.38495 22.683 6.27039 20.239 5.46843 17.8713C4.9338 16.3056 4.20822 14.8544 3.63539 13.3269C2.75706 11.1883 2.37518 8.97339 2.75706 6.64392C3.25351 3.93254 5.39206 1.794 8.10343 1.29755C9.01996 1.1448 9.9365 1.10661 10.853 1.25936C11.6931 1.41211 12.3805 1.22117 13.1443 0.915662C15.4737 -0.000855585 17.8415 -0.420928 20.2473 0.571969C22.9969 1.75581 24.1426 4.00892 24.5245 6.79667C24.9445 10.0045 24.4481 13.1741 23.837 16.3438C23.1496 20.0098 22.615 23.6759 22.6532 27.4183C22.6914 29.3278 22.6532 29.3278 20.7819 29.9388C16.2375 31.39 11.8841 30.7026 7.64517 28.7168C6.65227 28.2585 6.11763 27.6475 6.34677 26.5019C6.38495 26.0818 6.38495 25.6235 6.34677 25.1653ZM8.5617 24.4015C8.5617 25.0125 8.59989 25.6617 8.5617 26.2728C8.48532 26.7309 8.75264 27.151 9.21091 27.2656C10.5474 27.8002 11.9604 28.1439 13.3734 28.2967C15.6647 28.6022 17.9178 28.3349 20.1709 27.8766C20.8583 27.7239 20.6674 27.2656 20.6292 26.8455C20.591 26.3491 20.2473 26.5019 19.98 26.5401C18.2997 26.8073 16.5812 26.8837 14.8628 26.7691C14.1754 26.731 13.488 26.6164 12.8006 26.4255C12.4951 26.3109 12.2659 26.1964 12.3041 25.8145C12.3805 25.4326 12.5715 25.0125 12.9152 25.0889C14.099 25.3944 14.2136 24.6306 14.3663 23.8287C14.4045 23.6759 14.4427 23.5613 14.5191 23.4086C15.1301 21.9575 15.8174 20.5827 15.9702 18.9787C16.0084 18.6732 15.9702 18.2532 16.4285 18.2532C16.8867 18.2532 16.8867 18.6732 16.9249 19.0169C17.1159 20.2008 16.7722 21.3465 16.6194 22.492C16.5048 23.1413 16.4285 23.8287 16.3139 24.4779C16.2757 24.7452 16.3521 24.9743 16.6958 24.9743C16.8867 25.0125 17.0777 24.898 17.1159 24.7452C17.1159 24.6688 17.1159 24.6306 17.1159 24.5543C17.0013 23.1413 17.4978 21.8811 17.9178 20.5827C18.5289 18.7114 19.1017 16.8402 19.2163 14.8544C19.2545 14.5489 19.2545 14.0906 19.7509 14.0906C20.2473 14.0906 20.1327 14.5107 20.2091 14.8162C20.4764 16.0001 20.2473 17.1457 20.0945 18.2913C19.8655 20.1244 19.369 21.881 19.2926 23.7523C19.2926 24.0578 19.1399 24.5543 19.6745 24.5543C20.1327 24.5543 20.6292 24.4779 20.6292 23.7905C20.591 20.3535 21.5839 17.0694 22.3095 13.7851C22.8823 11.1502 23.1496 8.43874 22.6532 5.72739C21.8894 1.75581 18.758 1.06842 15.5501 2.0995C15.3974 2.13769 15.1683 2.17588 15.2065 2.40501C15.2828 2.51958 15.3974 2.63414 15.5119 2.71052C16.2375 3.13059 16.9631 3.55066 17.6887 3.97073C17.9178 4.12349 18.147 4.27624 18.1088 4.61994C18.0706 4.96363 17.7651 5.07819 17.4596 5.15457C16.6958 5.34551 15.8556 5.19276 15.1683 4.77269C13.7171 3.89435 12.075 3.28335 10.3948 3.01602C6.8814 2.44321 4.36097 4.58175 4.39916 8.13323C4.43735 9.9663 5.08655 11.6466 5.8885 13.2123C7.72155 16.7257 8.71445 20.3917 8.5617 24.4015Z" fill="black"/>
<path d="M38.6912 25.1653C38.7294 22.683 38.6148 20.239 37.8129 17.8713C37.2783 16.3438 36.5527 14.8544 35.9417 13.3269C35.1015 11.1883 34.7196 8.97339 35.1015 6.64392C35.598 3.93254 37.6984 1.794 40.4479 1.29755C41.3644 1.1448 42.281 1.10661 43.1974 1.25936C44.0376 1.41211 44.725 1.22117 45.4888 0.915662C47.8182 -0.000855585 50.1859 -0.420928 52.5917 0.571969C55.3414 1.75581 56.487 4.00892 56.8689 6.79667C57.289 10.0045 56.7925 13.1741 56.1815 16.3438C55.4941 20.0098 54.9595 23.6759 54.9976 27.4183C55.0358 29.3278 54.9977 29.3278 53.1264 29.9388C48.582 31.39 44.2285 30.7026 39.9896 28.7168C38.9967 28.2585 38.4621 27.6475 38.6912 26.5019C38.7294 26.0818 38.7294 25.6235 38.6912 25.1653ZM40.9062 24.4015C40.9062 25.0125 40.9443 25.6617 40.9062 26.2728C40.8298 26.7309 41.0971 27.151 41.5554 27.2656C42.892 27.8002 44.3049 28.1439 45.7179 28.2967C48.0091 28.6022 50.2623 28.3349 52.5154 27.8766C53.2028 27.7239 53.0118 27.2656 52.9736 26.8455C52.9354 26.3491 52.5917 26.5019 52.3245 26.5401C50.6442 26.8073 48.9257 26.8837 47.2073 26.7691C46.5199 26.731 45.8325 26.6164 45.145 26.4255C44.8395 26.3109 44.6104 26.1964 44.6486 25.8145C44.725 25.4326 44.9159 25.0125 45.2596 25.0889C46.4435 25.3944 46.558 24.6306 46.7108 23.8287C46.749 23.6759 46.7872 23.5613 46.8636 23.4086C47.4746 21.9575 48.1619 20.5827 48.3147 18.9787C48.3528 18.6732 48.3147 18.2532 48.7729 18.2532C49.2312 18.2532 49.2312 18.6732 49.2694 19.0169C49.4603 20.2008 49.1166 21.3465 48.9639 22.492C48.8493 23.1413 48.7729 23.8287 48.6584 24.4779C48.6202 24.7452 48.6965 24.9743 49.0402 24.9743C49.2312 25.0125 49.4221 24.898 49.4603 24.7452C49.4603 24.6688 49.4603 24.6306 49.4603 24.5543C49.3458 23.1413 49.8422 21.8811 50.2623 20.5827C50.8733 18.7114 51.4462 16.8402 51.5607 14.8544C51.5989 14.5489 51.5989 14.0906 52.0954 14.0906C52.5918 14.0906 52.4773 14.5107 52.5536 14.8162C52.8209 16.0001 52.5917 17.1457 52.4391 18.2913C52.2099 20.1244 51.7135 21.881 51.6371 23.7523C51.6371 24.0578 51.4843 24.5543 52.019 24.5543C52.4772 24.5543 52.9736 24.4779 52.9736 23.7905C52.9354 20.3535 53.9284 17.0694 54.6539 13.7851C55.2268 11.1502 55.4941 8.43874 54.9976 5.72739C54.2339 1.75581 51.1406 1.06842 47.9328 2.0995C47.78 2.13769 47.551 2.17588 47.5891 2.40501C47.6655 2.51958 47.7801 2.63414 47.8946 2.71052C48.6202 3.13059 49.3458 3.55066 50.0713 3.97073C50.3005 4.12349 50.5296 4.27624 50.4914 4.61994C50.4532 4.96363 50.1095 5.07819 49.8422 5.15457C49.0784 5.34551 48.2383 5.19276 47.551 4.77269C46.0616 3.89435 44.4576 3.28334 42.7392 3.05421C39.2258 2.48139 36.7054 4.61994 36.7436 8.17142C36.7818 10.0045 37.431 11.6848 38.233 13.2505C40.066 16.7257 41.0589 20.4299 40.9062 24.4015Z" fill="black"/>
<path d="M71.074 25.1653C71.1122 22.683 70.9976 20.239 70.1957 17.8713C69.661 16.3438 68.9354 14.8544 68.3245 13.3269C67.4843 11.1883 67.1024 8.97339 67.4843 6.64392C67.9808 3.93254 70.0811 1.794 72.7925 1.29755C73.709 1.1448 74.6255 1.10661 75.542 1.25936C76.3822 1.41211 77.0696 1.22117 77.8334 0.915662C80.1631 -0.000855585 82.5308 -0.420928 84.9363 0.571969C87.6859 1.75581 88.8316 4.00892 89.2135 6.79667C89.6331 10.0045 89.1371 13.1741 88.5261 16.3438C87.8387 20.0098 87.304 23.6759 87.3426 27.4183C87.3804 29.3278 87.3426 29.3278 85.4709 29.9388C80.9268 31.39 76.5731 30.7026 72.3342 28.7168C71.3413 28.2585 70.8067 27.6475 71.0358 26.5019C71.1122 26.0818 71.1122 25.6235 71.074 25.1653ZM73.289 24.4015C73.289 25.0125 73.3272 25.6617 73.289 26.2728C73.2126 26.7309 73.4798 27.151 73.9381 27.2656C75.2747 27.8002 76.6877 28.1439 78.1006 28.2967C80.3922 28.6022 82.6449 28.3349 84.8985 27.8766C85.5859 27.7239 85.3946 27.2656 85.3568 26.8455C85.3182 26.3491 84.9749 26.5019 84.7072 26.5401C83.0268 26.8073 81.3087 26.8837 79.5898 26.7691C78.9024 26.731 78.2152 26.6164 77.5279 26.4255C77.2224 26.3109 76.9932 26.1964 77.0314 25.8145C77.1078 25.4326 77.2987 25.0125 77.6424 25.0889C78.8261 25.3944 78.941 24.6306 79.0938 23.8287C79.1316 23.6759 79.1701 23.5613 79.2465 23.4086C79.8575 21.9575 80.5449 20.5827 80.6977 18.9787C80.7355 18.6732 80.6977 18.2532 81.156 18.2532C81.6142 18.2532 81.6142 18.6732 81.652 19.0169C81.8434 20.2008 81.4993 21.3465 81.3465 22.492C81.2324 23.1413 81.156 23.8287 81.041 24.4779C81.0032 24.7452 81.0796 24.9743 81.4229 24.9743C81.6142 25.0507 81.8048 24.9361 81.8812 24.7452C81.9197 24.6688 81.9197 24.5924 81.8812 24.5161C81.767 23.1031 82.2631 21.8429 82.6835 20.5445C83.2946 18.6732 83.867 16.802 83.982 14.8162C84.0198 14.5107 84.0198 14.0524 84.5166 14.0524C85.0127 14.0524 84.8985 14.4725 84.9749 14.778C85.2418 15.9619 85.0127 17.1076 84.8599 18.2532C84.6308 20.0862 84.1347 21.8811 84.0583 23.7141C84.0583 24.0196 83.9056 24.5161 84.4402 24.5161C84.8985 24.5161 85.3946 24.4397 85.3946 23.7523C85.3568 20.3154 86.3497 17.0312 87.0749 13.7469C87.6481 11.112 87.915 8.40055 87.419 5.68921C86.6552 1.71762 83.5237 1.03023 80.3158 2.06132C80.1631 2.0995 79.9339 2.13769 79.9717 2.36682C80.0481 2.48139 80.1631 2.59595 80.2772 2.67233C81.0032 3.0924 81.7284 3.51247 82.4544 3.93254C82.6835 4.0853 82.9127 4.23805 82.8741 4.58175C82.8363 4.92544 82.5308 5.04001 82.2253 5.11639C81.4615 5.30732 80.6213 5.15458 79.9339 4.7345C78.4825 3.85617 76.8405 3.24516 75.1601 2.97784C71.6468 2.40501 69.1264 4.54355 69.1646 8.09504C69.2027 9.92811 69.852 11.6084 70.6539 13.1741C72.4488 16.7257 73.4035 20.3917 73.289 24.4015Z" fill="black"/>
</g>
<defs>
<clipPath id="clip0_279_4">
<rect width="91.3386" height="100" fill="white"/>
</clipPath>
</defs>
</svg>
